<svg viewBox="0 0 512 512" xml:space="preserve" xmlns="http://www.w3.org/2000/svg" enable-background="new 0 0 512 512"><path d="M272.4 70.3c-95.9 0-173.6 77.7-173.6 173.6 0 95.9 77.7 173.6 173.6 173.6S446 339.8 446 243.9c0-95.9-77.7-173.6-173.6-173.6zm-96.8 188.1c-8 0-14.5-6.5-14.5-14.5s6.5-14.5 14.5-14.5 14.5 6.5 14.5 14.5c-.1 8-6.6 14.5-14.5 14.5zm96.8 0c-8 0-14.5-6.5-14.5-14.5s6.5-14.5 14.5-14.5 14.5 6.5 14.5 14.5-6.5 14.5-14.5 14.5zm96.8 0c-8 0-14.5-6.5-14.5-14.5s6.5-14.5 14.5-14.5 14.5 6.5 14.5 14.5-6.5 14.5-14.5 14.5z" fill="#7ba1fa" class="fill-69c9c9"></path><path d="M436.2 80.1c-43.8-43.8-102-67.9-163.9-67.9S152.2 36.4 108.4 80.1 40.5 182.1 40.5 244c0 27.7 4.8 54.8 14.4 80.5l-47 175.2 167.8-45c1.5.7 2.9 1.3 4.4 2 29.1 12.6 60.1 19 92.2 19 61.9 0 120.1-24.1 163.9-67.9 43.8-43.8 67.9-102 67.9-163.9 0-61.8-24.1-120-67.9-163.8zM272.3 455.8c-58 0-112.1-23-152.4-64.7L105.5 405c13.4 13.9 28.3 26 44.5 36L36.2 471.5l39.7-148-1.2-3c-9.4-24.3-14.2-50-14.2-76.4 0-116.8 95-211.8 211.8-211.8s211.8 95 211.8 211.8c0 116.7-95 211.7-211.8 211.7z" fill="#4d5152" class="fill-4d5152"></path><path d="M78.6 371.3c4 6.1 8.4 12.2 13.1 17.9l15.6-12.5c-4.2-5.2-8.2-10.8-11.9-16.4l-16.8 11zM272.4 61.2c-37.7 0-74 11.4-104.8 33.1l11.5 16.4c27.5-19.3 59.7-29.5 93.3-29.5 89.7 0 162.8 73 162.8 162.8s-73 162.8-162.8 162.8-162.8-73-162.8-162.8c0-33.6 10.2-65.8 29.5-93.3l-16.4-11.5C101 170 89.6 206.3 89.6 244c0 100.8 82 182.8 182.8 182.8 100.8 0 182.8-82 182.8-182.8s-82-182.8-182.8-182.8z" fill="#4d5152" class="fill-4d5152"></path><path d="m164.2 122.4-13.3-14.9c-5.3 4.7-10.3 9.8-15 15l14.9 13.3c4.2-4.7 8.7-9.2 13.4-13.4zM272.4 209.5c-19 0-34.5 15.5-34.5 34.5s15.5 34.5 34.5 34.5 34.5-15.5 34.5-34.5c0-19.1-15.5-34.5-34.5-34.5zm0 48.9c-8 0-14.5-6.5-14.5-14.5s6.5-14.5 14.5-14.5 14.5 6.5 14.5 14.5-6.5 14.5-14.5 14.5zM175.6 209.5c-19 0-34.5 15.5-34.5 34.5s15.5 34.5 34.5 34.5 34.5-15.5 34.5-34.5c-.1-19.1-15.5-34.5-34.5-34.5zm0 48.9c-8 0-14.5-6.5-14.5-14.5s6.5-14.5 14.5-14.5 14.5 6.5 14.5 14.5c-.1 8-6.6 14.5-14.5 14.5zM369.2 209.5c-19 0-34.5 15.5-34.5 34.5s15.5 34.5 34.5 34.5 34.5-15.5 34.5-34.5c0-19.1-15.5-34.5-34.5-34.5zm0 48.9c-8 0-14.5-6.5-14.5-14.5s6.5-14.5 14.5-14.5 14.5 6.5 14.5 14.5-6.5 14.5-14.5 14.5z" fill="#4d5152" class="fill-4d5152"></path></svg>
