<?xml version="1.0" ?><!DOCTYPE svg  PUBLIC '-//W3C//DTD SVG 1.1//EN'  'http://www.w3.org/Graphics/SVG/1.1/DTD/svg11.dtd'><svg enable-background="new 0 0 512 512" id="Layer_1" version="1.1" viewBox="0 0 512 512" xml:space="preserve" xmlns="http://www.w3.org/2000/svg" xmlns:xlink="http://www.w3.org/1999/xlink"><g><path d="M218.7,445.5c-6.6,0.7-12.2,1.4-17.8,2c-29.1,2.9-54.5-5-73.7-27.7c-6-7.1-9.4-16.3-14.5-24.2c-7.9-12.4-16-24.7-24.7-36.6   c-3-4.1-8.2-6.5-12.2-10c-1.3-1.1-1.7-3.2-2.6-4.9c1.8-0.7,3.5-1.9,5.3-2.1c23-2.1,39.2,8.5,50.5,27.6   c14.1,23.8,34.5,36.8,62.2,36.8c8,0,16-2.7,23.9-4.5c1.5-0.4,3.3-2.7,3.5-4.4c1.4-10.4,2.7-20.8,7.5-30.3c1.8-3.5,3.9-6.8,6-10.4   c-8.1-1.6-15.9-2.8-23.6-4.7c-35.5-9-64.8-26.8-81.8-60.6c-6.6-13.2-10.3-27.4-10.8-42.2c-0.8-22.8-0.5-45.7,4.1-68.2   c3.3-15.8,9.3-30.5,21.3-41.9c2.6-2.5,3.1-4.7,1.7-8.5c-6.7-18.7-7.4-37.7-1.7-56.8c1.2-4.1,2.3-8.2,3.5-12.5   c27.4,5.2,43.7,23.7,59,44.2c15.8-11.7,34.5-12.7,52.7-13.9c21.6-1.4,43.3-1.1,64.8,2.4c11.2,1.8,18.1,4.1,29,10.6   c9.4-9.7,18.2-19.5,27.9-28.4c7.7-7.1,17.3-11.6,27.7-14c2.9-0.7,4.4-0.4,5.6,2.8c8.1,22.1,9.3,44.1,0.4,66.2   c-1.2,3-1.1,5.1,1.4,7.5c14.4,13.7,21,31.4,23.2,50.5c2,17.7,3.1,35.5,3.1,53.3c0,25.3-7.5,48.5-23.4,68.4   c-11.2,14.1-25.7,24.2-42.1,31.8c-15.9,7.3-32.5,11.5-49.7,13.7c-0.4,0.1-0.8,0.4-1.5,0.7c11.8,16.9,13.7,35.9,13.5,55.6   c-0.3,28.7-0.2,57.3,0,86c0,4.5-1.3,5.6-5.7,5.6c-35.5-0.2-71-0.2-106.5,0c-4.4,0-5.8-1.4-5.8-5.7c0.2-15.5,0.1-31,0.1-46.5   C218.7,449.9,218.7,447.9,218.7,445.5z"/></g></svg>